<?xml version="1.0" standalone="no"?>
<!DOCTYPE svg PUBLIC "-//W3C//DTD SVG 20010904//EN"
 "http://www.w3.org/TR/2001/REC-SVG-20010904/DTD/svg10.dtd">
<svg version="1.0" xmlns="http://www.w3.org/2000/svg"
 width="1080.000000pt" height="1080.000000pt" viewBox="0 0 1080.000000 1080.000000"
 preserveAspectRatio="xMidYMid meet">

<g transform="translate(0.000000,1080.000000) scale(0.100000,-0.100000)"
fill="#000000" stroke="none">
<path d="M5085 10790 c-1187 -82 -2249 -508 -3170 -1274 -159 -132 -514 -489
-649 -651 -551 -665 -909 -1369 -1111 -2185 -109 -443 -149 -789 -149 -1280 0
-491 40 -837 149 -1280 202 -816 560 -1520 1111 -2185 135 -162 490 -519 649
-651 730 -607 1538 -996 2446 -1178 367 -74 639 -100 1069 -100 359 0 517 11
809 54 1126 167 2173 687 2990 1485 811 793 1344 1792 1546 2898 l25 138 0
819 0 819 -25 138 c-169 927 -562 1761 -1181 2508 -135 162 -490 519 -649 651
-552 459 -1126 781 -1780 999 -415 139 -777 216 -1215 260 -186 19 -684 27
-865 15z m385 -3552 l-87 -443 -911 -3 c-856 -2 -911 -3 -916 -20 -3 -9 -46
-228 -96 -487 -49 -258 -92 -480 -95 -492 l-5 -23 860 0 c473 0 860 -3 860 -7
0 -5 -36 -203 -82 -440 l-82 -433 -861 0 -862 0 -28 -147 c-15 -82 -65 -341
-110 -578 l-82 -430 964 -3 c644 -1 963 -5 963 -12 0 -6 -36 -203 -80 -439
-44 -235 -80 -431 -80 -435 0 -3 -669 -6 -1486 -6 l-1486 0 4 28 c2 15 209
1104 459 2419 l454 2393 1436 0 1435 0 -86 -442z m4126 415 c-3 -16 -37 -194
-76 -398 -39 -203 -75 -394 -81 -422 l-10 -53 -647 -2 -646 -3 -352 -1875
c-194 -1031 -360 -1917 -370 -1968 l-16 -92 -514 0 c-362 0 -514 3 -514 11 0
6 164 885 365 1953 201 1068 365 1950 365 1959 0 16 -44 17 -635 17 -349 0
-635 1 -635 3 0 9 171 874 175 885 3 9 373 12 1800 12 l1797 0 -6 -27z"/>
</g>
</svg>
